# xmcd CD database file
#
# Track frame offsets:
#	150
#	13885
#	35700
#	46885
#	57900
#	66600
#	84600
#	101025
#	113635
#	129610
#	141075
#	156160
#	179260
#	194710
#	207075
#	228375
#	241275
#	255375
#
# Disc length: 3556 seconds
#
# Revision: 0
# Processed by: cddbd v1.5.2PL0 Copyright (c) Steve Scherf et al.
# Submitted via: CDex 1.51
#
DISCID=070de212
DTITLE=Floyd Cramer - All time Favorites Vol1
DYEAR=1987
DGENRE=Country
TTITLE0=One day at a Time
TTITLE1=What a Friend/Where could I go/It is no Secret/Hide me Rock of Ages/Old Time Religion
TTITLE2=How Great thou Art
TTITLE3=peace in the Valley
TTITLE4=Amazing Grace
TTITLE5=When they Ring those Golden Bells/Rock of Ages/How firm a Foundation/Just as I am
TTITLE6=O happy Day
TTITLE7=Where noone Stands alone
TTITLE8=Standing on the promises/Bringing in the Scheaves/I am bound to the Promise Land/Shall we Gather at the river/Leaning on the Ever-lasting Arms
TTITLE9=Amen
TTITLE10=Beautiful Isle of Somewhere
TTITLE11=Precious memories/In the Garden/Take my Hand/Softly and Tinderly/Lord I'm Coming Home
TTITLE12=Just a closer walk with thee
TTITLE13=His eye's on the Sparrow
TTITLE14=I Love to tell the Story/A Beautiful Life/Will there be any stars in my crown/Sweet bye and Bye
TTITLE15=Old Rugged Cross
TTITLE16=O How I love Jesus/Just a little Talk with Jesus/Old time Religion/I saw the light
TTITLE17=Blessed Assurance
EXTD=YEAR: 1987
EXTT0=
EXTT1=
EXTT2=
EXTT3=
EXTT4=
EXTT5=
EXTT6=
EXTT7=
EXTT8=
EXTT9=
EXTT10=
EXTT11=
EXTT12=
EXTT13=
EXTT14=
EXTT15=
EXTT16=
EXTT17=
PLAYORDER=
